<?xml version="1.0" encoding="UTF-8"?>
<svg xmlns="http://www.w3.org/2000/svg" width="184" height="228" viewBox="0 0 184 228">
  <g>
    <g>
      <path d="m173.812,209.692c-.204-.036-2.162-2.604-.585-3.509-3.143-.302-7.842-5.199-9.162-5.458-9.755-1.914-6.302,22.121-16.96,8.577-1.988-2.526-2.144-3.683-3.509-5.848-5.772-2.652-8.094,16.142-19.689,14.815-10.068-1.152-9.217-19.563-22.613-16.375-8.463,2.014-13.151,27.22-29.631,19.884-9.89-4.402-8.495-19.18-15.595-20.664-10.926-2.283-12.386,8.139-16.57,12.671-9.358,10.135-18.979,1.407-21.443-12.281-.453-2.515-.218-7.521-.585-7.798-1.437,1.303-6.004,3.816-7.603,3.899-.088,4.44,2.282.423,2.534.39.553-.072,1.442,1.103,1.754,2.339,1.008,3.989,1.187,14.609,8.188,20.274.606.49,1.273.801,1.949,1.17,4.909,2.675,8.834,2.723,13.646-.39,6.096-3.944,8.469-13.431,11.891-15.205,8.249-4.277,8.093,8.75,13.451,15.595,7.955,10.163,19.31,8.858,27.292-.39,5.531-6.409,8.464-18.659,16.18-14.815,3.438,1.712,4.937,11.058,10.722,14.815,3.692,2.399,7.896,2.996,12.086,1.56,4.988-1.709,9.228-9.128,11.502-13.646,8.113,15.274,16.624,10.175,21.054-4.289,1.952-.795,9.612,9.557,18.129,2.729.778-1.771-4.049,2.373-6.433,1.949Z" fill="#0c1a0e" stroke-width="0"/>
      <path d="m174.787,167c-6.521-18.069-9.677-37.266-12.866-56.143-3.854-22.816-6.016-60.279-17.155-79.536C119.715-11.988,53.728-10.462,33.65,36.389c-10.01,23.358-13.814,78.084-20.274,105.658C10.643,153.713.614,178.022.12,184.154c-.777,9.647,2.034,20.185,14.036,16.18-.312-1.236-1.202-2.411-1.754-2.339-.252.033-2.622,4.05-2.534-.39-14.68.756,4.027-39.841,7.018-52.244,4.246-17.605,7.932-52.149,12.086-73.493,5.397-27.728,10.392-52.781,39.768-64.136,4.615-1.784,8.344-2.827,13.256-3.509,11.677-1.621,20.826.078,31.58,4.679,3.964,1.696,6.545,3.068,10.137,5.458,18.45,12.278,23.646,29.325,27.682,50.1,6.758,34.791,7.921,69.596,19.884,103.514,2.982,8.453,9.831,22.569,10.137,26.512.405,5.215-1.676,12.322-8.188,11.696-1.577.905.381,3.473.585,3.509,2.384.423,7.211-3.72,6.433-1.949,12.044-9.654-1.487-29.74-5.458-40.743Z" fill="#0d3618" stroke-width="0"/>
      <path d="m18.054,201.504c2.802-.452,1.38,1.238,2.729,1.17-1.713-11.977,5.636-12.491,10.137-18.909,3.377-4.817,4.423-11.475,8.188-16.18,1.094-3.417,2.129-6.682,3.119-10.137-1.338-.905.228-3.843.78-6.628-.601.181-2.656-.81-2.729-.975-.692-1.556-3.005-30.206-3.119-33.92-.148-4.804-.229-9.916.78-14.036-2.173.825-.261-2.941-2.729-2.534-2.027,13.104-2.04,26.575-4.679,39.573-2.207,10.87-7.924,25.23-11.696,36.064-1.48,4.25-3.891,18.076-9.162,19.104-6.31,1.23-2.208-10.567-1.365-14.036,2.494-10.254,8.553-23.804,12.086-34.31.567-1.687,1.011-3.396,1.56-5.068,1.922-5.866,4.476-11.705,5.848-17.74,2.444-10.749,2.347-30.889,7.798-24.368,4.524-19.445,6.861-45.687,14.426-63.551.721-1.702,1.499-3.061,2.339-4.679,6.937-13.344,16.209-20.754,16.765-22.028.025-.057-.472-.295-.39-.585-29.376,11.355-34.371,36.408-39.768,64.136-4.154,21.344-7.84,55.887-12.086,73.493-2.991,12.403-21.698,53-7.018,52.244,1.599-.082,6.166-2.596,7.603-3.899.367.276.132,5.283.585,7.798Z" fill="#488b4f" stroke-width="0"/>
      <path d="m147.69,207.742c.409-.128.551.256.975.39-1.414-2.135,4.732-3.687,6.628-3.899,6.037-10.091,8.826-5.377,15.595-1.949q-2.534-8.675-5.068-17.35l1.17-3.314c-1.238-3.494-2.39-6.993-3.509-10.527q-4.484,2.924-8.967,5.848c.748,5.573,2.153,14.08-5.653,15.595-6.86,1.332-8.849-2.585-9.552-8.188-6.001-1.52-2.017,2.6-4.679,2.339.516,4.887.754,10.588-3.509,14.036-3.764,3.044-7.963,2.375-10.137-1.949-1.345-2.677-2.081-8.892-2.339-12.086-3.663-3.431-8.458-11.938-14.036-10.527-5.243,1.327-10.051,16.311-15.205,22.613-3.868,4.729-9.019,8.027-15.4,7.408-11.62-1.128-9.089-16.765-11.112-22.613-.046-.133-1.235-1.88-1.56-2.339-1.037-1.47-2.703-3.522-4.289-4.289-10.229-4.947-14.674,7.461-21.443,2.729-1.26,3.507-8.905,22.442-10.137,24.368-1.688,2.638-6.828,5.467,3.704.195,1.997-1,12.116-7.743,12.866-7.798.566-.041,3.099,3.328,3.704,3.899,4.269-3.529,12.102-3.11,15.595,1.17,2.755,3.375,4.527,20.748,17.74,18.714,7.255-1.116,11.976-12.717,15.79-16.765,6.179-6.557,14.139-6.044,19.494,1.17,1.303,1.755,5.481,15.627,15.4,9.357,2.297-1.452,5.009-6.652,6.823-8.967,1.949-2.488,1.981-4.681,6.043-3.119,2.185.84.911,1.459.975,1.56,1.365,2.165,1.521,3.322,3.509,5.848.677.054-.54-1.208.585-1.56Z" fill="#488b4f" stroke-width="0"/>
      <path d="m142.622,201.894c-4.063-1.562-4.094.631-6.043,3.119-1.814,2.315-4.526,7.515-6.823,8.967-9.92,6.27-14.097-7.602-15.4-9.357-5.355-7.213-13.315-7.726-19.494-1.17-3.814,4.047-8.535,15.648-15.79,16.765-13.213,2.033-14.984-15.339-17.74-18.714-3.494-4.279-11.326-4.699-15.595-1.17-2.725,2.252-5.388,8.502-7.798,11.112-8.425,9.125-15.826.517-17.155-8.772-1.349.068.073-1.622-2.729-1.17,2.464,13.689,12.085,22.417,21.443,12.281,4.184-4.532,5.644-14.954,16.57-12.671,7.1,1.484,5.705,16.261,15.595,20.664,16.48,7.336,21.168-17.87,29.631-19.884,13.397-3.188,12.545,15.223,22.613,16.375,11.595,1.327,13.917-17.468,19.689-14.815-.063-.101,1.211-.719-.975-1.56Z" fill="#69b167" stroke-width="0"/>
      <path d="m179.855,195.656c.116,3.793-2.135,8.878-6.823,8.188-.842-.124-2.026-1.5-2.144-1.56-6.769-3.427-9.558-8.142-15.595,1.949-.608,1.016-1.565,5.079-2.534,5.458-1.778.696-3.193-1.274-4.094-1.56-.423-.134-.566-.518-.975-.39-1.125.352.092,1.613-.585,1.56,10.658,13.543,7.205-10.492,16.96-8.577,1.32.259,6.019,5.156,9.162,5.458,6.512.625,8.592-6.481,8.188-11.696-1.515-.156.689,1.4-1.56,1.17Z" fill="#69b167" stroke-width="0"/>
      <path d="m69.129,8.318c-.556,1.275-9.828,8.684-16.765,22.028-.841,1.617-1.619,2.977-2.339,4.679-7.565,17.864-9.902,44.106-14.426,63.551.014.342-.33.39-.39.78,2.468-.407.557,3.359,2.729,2.534-1.009,4.119-.928,9.232-.78,14.036.115,3.714,2.427,32.364,3.119,33.92.073.165,2.128,1.156,2.729.975-.551,2.785-2.118,5.723-.78,6.628,5.673-19.79,9.434-31.643,8.188-53.414-1.813-.133-3.594-.108-5.068-1.56-3.547-3.492,2.249-7.942,3.899-8.577,1.616-.623,5.678-.478,7.408-1.17-3.513-1.727-5.648-5.675-6.238-9.357-1.773.804-.741-7.835.78-10.722-1.274-17.043,2.948-19.664,3.899-23.003,1.217-4.272,1.71-9.019,3.509-14.036,4.643-12.948,12.514-23.038,23.393-31.385-4.912.682-8.641,1.725-13.256,3.509-.082.29.415.528.39.585Z" fill="#69b167" stroke-width="0"/>
      <path d="m90.962,17.675c1.525,7.783,16.891,1.007,19.689.585,10.504-1.584,13.761,2.962,13.061-3.899-3.592-2.391-6.173-3.763-10.137-5.458-5.571-.307-24.519-.958-22.613,8.772Z" fill="#fafaf9" stroke-width="0"/>
      <path d="m27.801,122.943c-1.372,6.035-3.926,11.874-5.848,17.74-.548,1.673-.992,3.382-1.56,5.068-3.533,10.506-9.592,24.056-12.086,34.31,3.999-.554,7.136-3.171,10.527-5.068,3.772-10.834,9.49-25.194,11.696-36.064,2.639-12.998,2.651-26.469,4.679-39.573.06-.389.404-.438.39-.78-5.451-6.521-5.353,13.619-7.798,24.368Z" fill="#2b6c3c" stroke-width="0"/>
      <path d="m37.938,211.446c2.41-2.61,5.073-8.859,7.798-11.112-.605-.571-3.138-3.94-3.704-3.899-.75.054-10.869,6.798-12.866,7.798-10.532,5.273-5.392,2.444-3.704-.195,1.232-1.926,8.877-20.861,10.137-24.368.799-2.224,1.194-4.773,1.949-7.018.574-1.705,1.017-3.375,1.56-5.068-3.764,4.706-4.81,11.363-8.188,16.18-4.501,6.419-11.85,6.932-10.137,18.909,1.329,9.29,8.73,17.897,17.155,8.772Z" fill="#2b6c3c" stroke-width="0"/>
      <path d="m9.672,194.096c5.271-1.028,7.683-14.854,9.162-19.104-3.391,1.897-6.528,4.515-10.527,5.068-.844,3.469-4.945,15.266,1.365,14.036Z" fill="#175b2e" stroke-width="0"/>
      <path d="m170.888,202.284c.118.06,1.302,1.436,2.144,1.56,4.688.69,6.939-4.395,6.823-8.188-.066-2.159-2.17-6.939-2.534-7.018-8.47,4.95-6.042,5.093-10.332-7.018l-1.17,3.314q2.534,8.675,5.068,17.35Z" fill="#367b44" stroke-width="0"/>
      <path d="m160.166,160.567q-3.606,5.751-7.213,11.502c.308,1.979,1.525,4.62,1.56,4.874q4.484-2.924,8.967-5.848c-.372-1.176-2.652-10.549-3.314-10.527Z" fill="#69b167" stroke-width="0"/>
      <path d="m139.308,184.349c-.271-2.162-.425-12.421-.78-13.061q-3.217.292-6.433.585c-.798.563,2.343,13.007,2.534,14.815,2.662.26-1.323-3.859,4.679-2.339Z" fill="#69b167" stroke-width="0"/>
      <path d="m148.665,208.132c.901.286,2.315,2.255,4.094,1.56.969-.379,1.926-4.442,2.534-5.458-1.896.211-8.042,1.764-6.628,3.899Z" fill="#175b2e" stroke-width="0"/>
      <path d="m135.409,48.086c.169,3.851,4.038,25.61,5.068,33.92.959,7.737,1.62,26.126,2.729,30.606.429,1.732,1.177,3.516,2.339,4.874,4.935,5.764,8.454,2.24,8.967,2.144-1.759-11.49-10.158-71.695-12.476-76.612-2.242-4.755-7.023-3.925-6.628,5.068Z" fill="#bbe0ad" stroke-width="0"/>
      <path d="m61.721,93.897c-1.97.075-3.326-.313-5.068-1.17-1.73.692-5.791.547-7.408,1.17-1.65.635-7.446,5.086-3.899,8.577,1.475,1.452,3.255,1.427,5.068,1.56,7.079.518,18.626-3.228,11.307-10.137Z" fill="#faaf8e" stroke-width="0"/>
      <path d="m61.331,181.23c.324.46,1.514,2.206,1.56,2.339,1.124,1.266,2.258-8.776,3.119-13.646.139-.788.346-.922.39-1.17-2.312-1.151-6.088,6.637-9.357,8.188,1.585.767,3.252,2.819,4.289,4.289Z" fill="#69b167" stroke-width="0"/>
      <path d="m118.644,186.689c-.451-5.577.321-11.36-.39-16.96-3.301-3.47-8.025-8.52-13.256-5.458q-.195,5.946-.39,11.891c5.577-1.411,10.373,7.096,14.036,10.527Z" fill="#69b167" stroke-width="0"/>
      <path d="m58.602,35.61c-1.799,5.017-2.292,9.763-3.509,14.036-.951,3.339-5.173,5.96-3.899,23.003-1.521,2.887-2.553,11.526-.78,10.722-2.861-17.852,17.345-26.571,22.223-9.552,2.473,8.626-2.064,19.741-10.917,20.079,7.32,6.909-4.228,10.655-11.307,10.137,1.247,21.771-2.514,33.624-8.188,53.414-.99,3.455-2.025,6.72-3.119,10.137-.542,1.693-.985,3.363-1.56,5.068-.756,2.245-1.151,4.794-1.949,7.018,6.769,4.731,11.214-7.676,21.443-2.729,3.269-1.551,7.045-9.338,9.357-8.188-.044.247-.251.382-.39,1.17-.861,4.87-1.995,14.912-3.119,13.646,2.023,5.849-.508,21.486,11.112,22.613,6.381.619,11.533-2.679,15.4-7.408,5.154-6.302,9.962-21.286,15.205-22.613q.195-5.946.39-11.891c5.231-3.061,9.955,1.988,13.256,5.458.711,5.6-.062,11.383.39,16.96.259,3.194.994,9.409,2.339,12.086,2.174,4.324,6.373,4.993,10.137,1.949,4.263-3.448,4.025-9.149,3.509-14.036-.191-1.809-3.332-14.253-2.534-14.815q3.217-.292,6.433-.585c.354.64.508,10.899.78,13.061.703,5.602,2.692,9.52,9.552,8.188,7.806-1.516,6.401-10.023,5.653-15.595-.034-.254-1.251-2.894-1.56-4.874q3.606-5.751,7.213-11.502c.662-.023,2.942,9.351,3.314,10.527,1.119,3.534,2.271,7.033,3.509,10.527,4.29,12.111,1.862,11.968,10.332,7.018.365.079,2.468,4.859,2.534,7.018,2.248.23.045-1.326,1.56-1.17-.306-3.943-7.155-18.059-10.137-26.512-11.963-33.918-13.126-68.722-19.884-103.514-4.035-20.775-9.232-37.822-27.682-50.1.7,6.861-2.557,2.314-13.061,3.899-2.798.422-18.164,7.198-19.689-.585-1.906-9.73,17.042-9.08,22.613-8.772-10.754-4.601-19.903-6.3-31.58-4.679-10.879,8.348-18.75,18.437-23.393,31.385Zm83.435,7.408c2.318,4.917,10.718,65.122,12.476,76.612-.513.095-4.033,3.62-8.967-2.144-1.162-1.357-1.91-3.141-2.339-4.874-1.109-4.48-1.77-22.868-2.729-30.606-1.03-8.31-4.899-30.069-5.068-33.92-.395-8.994,4.386-9.824,6.628-5.068Zm-15.4-19.299c6.322-1.509,14.176,14.657,8.577,16.375-7.403,2.272-14.453-14.973-8.577-16.375Zm-12.476,41.717c16.04-8.388,21.963,23.207,8.382,27.682,4.902-.112,11.31,4.105,6.043,8.577-4.98,4.228-25.96,1.065-11.112-8.188-12.709-1.333-13.772-22.603-3.314-28.071Zm-30.561,26.642c.011-.009.09.041.099-.011.131-.791,2.439-2.147,2.792.653.05.401.935,6.434,4.563,5.554,3.078-.746,1.797-8.36,5.219-7.053,1.663.635.726,9.497-3.614,10.964-7.864,2.658-10.228-9.14-9.058-10.108Z" fill="#a1d081" stroke-width="0"/>
      <path d="m135.214,40.093c5.598-1.718-2.255-17.884-8.577-16.375-5.876,1.402,1.175,18.647,8.577,16.375Z" fill="#fafaf9" stroke-width="0"/>
      <path d="m117.474,93.507c-14.849,9.253,6.132,12.416,11.112,8.188,5.267-4.473-1.141-8.69-6.043-8.577-1.25.412-3.746.529-5.068.39Z" fill="#faaf8e" stroke-width="0"/>
      <path d="m117.474,93.507c1.322.139,3.819.022,5.068-.39,13.581-4.475,7.657-36.069-8.382-27.682-10.458,5.468-9.395,26.738,3.314,28.071Zm2.534-28.071c5.484-1.398,6.179,6.862.39,5.458-2.41-.584-3.161-4.752-.39-5.458Z" fill="#080806" stroke-width="0"/>
      <path d="m120.398,70.894c5.789,1.404,5.094-6.856-.39-5.458-2.771.706-2.02,4.874.39,5.458Z" fill="#fafaf9" stroke-width="0"/>
      <path d="m92.657,102.186c4.341-1.467,5.277-10.329,3.614-10.964-3.422-1.308-2.141,6.306-5.219,7.053-3.627.88-4.512-5.154-4.563-5.554-.353-2.8-2.661-1.444-2.792-.653-.009.053-.088.002-.099.011-1.17.968,1.194,12.766,9.058,10.108Z" fill="#070706" stroke-width="0"/>
      <path d="m72.638,73.818c-4.879-17.019-25.084-8.3-22.223,9.552.59,3.682,2.725,7.63,6.238,9.357,1.743.857,3.098,1.245,5.068,1.17,8.853-.338,13.389-11.453,10.917-20.079Zm-9.942-7.993c4.008-1.344,6.521,3.52,3.119,5.068-3.616,1.646-6.177-4.043-3.119-5.068Z" fill="#080806" stroke-width="0"/>
      <path d="m65.815,70.894c3.402-1.549.889-6.412-3.119-5.068-3.058,1.025-.497,6.715,3.119,5.068Z" fill="#fafaf9" stroke-width="0"/>
    </g>
  </g>
</svg>