<svg xmlns="http://www.w3.org/2000/svg" id="slimer" data-name="Slimer" viewBox="0 0 154.63 191.16"><defs><style>.cls-1{fill:#faaf8e}.cls-1,.cls-12,.cls-2,.cls-4,.cls-5,.cls-6,.cls-7,.cls-8{stroke-width:0}.cls-2{fill:#488b4f}.cls-4{fill:#a1d081}.cls-5{fill:#2b6c3c}.cls-6{fill:#175b2e}.cls-7{fill:#fafaf9}.cls-8{fill:#69b167}.cls-12{fill:#080806}</style></defs><g><path fill="#0c1a0e" stroke-width="0" d="M15.08 168.3c2.06 11.43 10.09 18.72 17.91 10.26 3.49-3.78 4.71-12.49 13.84-10.58 5.93 1.24 4.77 13.58 13.03 17.26 13.76 6.13 17.68-14.93 24.75-16.61 11.19-2.66 10.48 12.71 18.89 13.68 9.68 1.11 11.62-14.59 16.44-12.37 1.14 1.81 1.27 2.77 2.93 4.88 8.9 11.31 6.02-8.76 14.17-7.16 1.1.22 5.03 4.31 7.65 4.56-1.32.76.32 2.9.49 2.93 1.99.35 6.02-3.11 5.37-1.63-7.11 5.7-13.51-2.94-15.14-2.28-3.7 12.08-10.81 16.34-17.58 3.58-1.9 3.77-5.44 9.97-9.61 11.4-3.5 1.2-7.01.7-10.09-1.3-4.83-3.14-6.08-10.94-8.96-12.37-6.44-3.21-8.89 7.02-13.51 12.37-6.67 7.72-16.15 8.81-22.79.33-4.48-5.72-4.34-16.6-11.23-13.03-2.86 1.48-4.84 9.41-9.93 12.7-4.02 2.6-7.3 2.56-11.4.33-.56-.31-1.12-.57-1.63-.98-5.85-4.73-6-13.6-6.84-16.93-.26-1.03-1-2.01-1.47-1.95-.21.03-2.19 3.38-2.12-.33 1.34-.07 5.15-2.17 6.35-3.26.31.23.11 4.41.49 6.51Z"/><path fill="#0d3618" stroke-width="0" d="M150.55 173.51c.65-1.48-3.38 1.98-5.37 1.63-.17-.03-1.81-2.18-.49-2.93 5.44.52 7.18-5.41 6.84-9.77-.26-3.29-5.98-15.08-8.47-22.14-9.99-28.33-10.96-57.4-16.61-86.46-3.37-17.35-7.71-31.59-23.12-41.84-3-2-5.16-3.14-8.47-4.56-8.98-3.84-16.62-5.26-26.38-3.91-4.1.57-7.22 1.44-11.07 2.93-24.54 9.48-28.71 30.41-33.22 53.57-3.47 17.83-6.55 46.68-10.09 61.38-2.5 10.36-18.12 44.27-5.86 43.64-.07 3.71 1.91.35 2.12.33.46-.06 1.2.92 1.47 1.95C1.81 170.68-.54 161.87.11 153.82c.41-5.12 8.79-25.43 11.07-35.17 5.4-23.03 8.57-68.74 16.93-88.25 16.76-39.14 71.88-40.41 92.8-4.24 9.3 16.08 11.11 47.37 14.33 66.43 2.66 15.77 5.3 31.8 10.75 46.89 3.32 9.19 14.62 25.97 4.56 34.03Z"/><path d="M35.92 125.97c-.46 2.33-1.77 4.78-.65 5.54-.83 2.89-1.69 5.61-2.61 8.47-3.14 3.93-4.02 9.49-6.84 13.51-3.76 5.36-9.9 5.79-8.47 15.79-1.13.06.06-1.35-2.28-.98-.38-2.1-.18-6.28-.49-6.51-1.2 1.09-5.01 3.19-6.35 3.26-12.26.63 3.36-33.28 5.86-43.64l1.79-1.95 1.14 2.28c-2.95 8.77-8.01 20.09-10.09 28.66-.7 2.9-4.13 12.75 1.14 11.72 4.4-.86 6.42-12.41 7.65-15.96 3.15-9.05 7.93-21.04 9.77-30.12 2.2-10.86 2.21-22.11 3.91-33.05 2.06-.34.46 2.81 2.28 2.12-.84 3.44-.78 7.71-.65 11.72.1 3.1 2.03 27.03 2.61 28.33.06.14 1.78.97 2.28.81ZM139.47 151.69l-.98 2.77 4.23 14.49c-5.65-2.86-7.98-6.8-13.03 1.63-1.58.18-6.72 1.47-5.54 3.26-.35-.11-.47-.43-.81-.33-.94.29.08 1.35-.49 1.3-1.66-2.11-1.79-3.08-2.93-4.88-.05-.08 1.01-.6-.81-1.3-3.39-1.3-3.42.53-5.05 2.61-1.56-.27-2.31 1.01-2.44.98-.22-.05-1.04-2.29-1.14-2.44-.38-.59-1.54.94-.98-2.12 3.56-2.88 3.36-7.64 2.93-11.72 2.22.22-1.1-3.22 3.91-1.95.59 4.68 2.25 7.95 7.98 6.84 6.52-1.27 5.35-8.37 4.72-13.03q3.74-2.44 7.49-4.88c.93 2.95 1.9 5.87 2.93 8.79Z" class="cls-2"/><path d="M51.23 168.3c2.3 2.82 3.78 17.33 14.82 15.63 6.06-.93 10-10.62 13.19-14 5.16-5.48 11.81-5.05 16.28.98 1.09 1.47 4.58 13.05 12.86 7.82 1.92-1.21 4.18-5.56 5.7-7.49 1.63-2.08 1.65-3.91 5.05-2.61 1.83.7.76 1.22.81 1.3-4.82-2.22-6.76 13.48-16.44 12.37-8.41-.96-7.7-16.34-18.89-13.68-7.07 1.68-10.98 22.73-24.75 16.61-8.26-3.68-7.1-16.02-13.03-17.26-9.13-1.91-10.34 6.8-13.84 10.58-7.82 8.47-15.85 1.18-17.91-10.26 2.34-.38 1.15 1.03 2.28.98 1.11 7.76 7.29 14.95 14.33 7.33 2.01-2.18 4.24-7.4 6.51-9.28 3.57-2.95 10.11-2.6 13.03.98ZM151.52 162.44c.34 4.36-1.4 10.29-6.84 9.77-2.63-.25-6.55-4.34-7.65-4.56-8.15-1.6-5.26 18.48-14.17 7.16.57.05-.45-1.01.49-1.3.34-.11.46.21.81.33.75.24 1.93 1.88 3.42 1.3.81-.32 1.61-3.71 2.12-4.56 5.04-8.43 7.37-4.49 13.03-1.63.1.05 1.09 1.2 1.79 1.3 3.92.58 5.8-3.67 5.7-6.84 1.88.19.04-1.11 1.3-.98Z" class="cls-8"/><path d="M129.05 99.92c5.46-1.01 3.82 2.61 4.23 4.4.06.27.59.06.65.33.21.97-.08 5.14.98 5.54-4.8 1.79 2.23 4.71 1.95 12.37.92 2.57 4.69 16.81 5.21 17.58.2.3.66.13.98.16 2.49 7.06 8.21 18.85 8.47 22.14-1.27-.13.58 1.17-1.3.98-.06-1.8-1.81-5.8-2.12-5.86-7.07 4.13-5.05 4.25-8.63-5.86-1.03-2.92-2-5.84-2.93-8.79-.31-.98-2.22-8.81-2.77-8.79l-6.02 9.61c.26 1.65 1.27 3.86 1.3 4.07.62 4.65 1.8 11.76-4.72 13.03-5.73 1.11-7.39-2.16-7.98-6.84-.23-1.81-.36-10.37-.65-10.91l-5.37.49c-.67.47 1.96 10.86 2.12 12.37.43 4.08.63 8.84-2.93 11.72-3.14 2.54-6.65 1.98-8.47-1.63-1.12-2.24-1.74-7.43-1.95-10.09-.38-4.66.27-9.49-.33-14.17-2.76-2.9-6.7-7.12-11.07-4.56l-.33 9.93c-4.38 1.11-8.4 13.62-12.7 18.89-3.23 3.95-7.53 6.7-12.86 6.19-9.71-.94-7.59-14-9.28-18.89.94 1.06 1.89-7.33 2.61-11.4.87.27 2.29 1.08 2.93.16 1.11-1.6 4.45-19.24 4.88-20.19 2.77-6.07 5.64 4.3 9.93-1.79 2.58-.32 4.54.75 5.54-.33l3.09 14.49c1.43.96 4.89 3.74 5.86 1.63 1.97-4.29-5.57-34.19 2.44-32.4 3.68.82 6.68 16.46 7.33 20.03.77 4.25.09 9.91 2.44 12.86 6.23-2.28 6.5 1.65 6.35-4.4-.12-4.6-2.86-13.79-2.28-22.79.3-4.67 2.82-16.77 7.82-7.49l4.23 24.75 1.14 1.79 4.56-1.63c1.59-2.28-1.42-18.06-1.79-21.98-.2-2.17-.68-9.31 0-10.58.36 1.45.98 2.94 1.95 4.07 4.12 4.81 7.06 1.87 7.49 1.79Z" class="cls-4"/><path d="M68.48 3.53c-9.09 6.97-15.66 15.4-19.54 26.21-1.5 4.19-1.91 8.15-2.93 11.72-.79 2.79-4.32 4.98-3.26 19.21-1.27 2.41-2.13 9.63-.65 8.96.49 3.08 2.28 6.37 5.21 7.82-1.44.58-4.84.46-6.19.98-.42-3.13-1.51-6.15-1.95-9.28-.29-2.07 1.12-5-1.63-4.4 1.44-9.23 2.03-18.66 3.91-27.84.98-4.82 3.64-10.69 2.28-11.56 5.79-11.15 13.54-17.33 14-18.4.02-.05-.39-.25-.33-.49 3.85-1.49 6.97-2.36 11.07-2.93Z" class="cls-8"/><path d="M43.74 25.35c-.7 1.35-1.35 2.49-1.95 3.91-1.94-1.96-.76-5.85-5.21-5.05-10.14 20.37-9.65 43.74-14.98 65.45-.32 3.5-2.46 21.75-2.93 22.79-.16.36-5.66 4.77-.33 5.05-.46 1.4-.83 2.82-1.3 4.23l-1.14-2.28-1.79 1.95c3.55-14.7 6.63-43.56 10.09-61.38 4.51-23.16 8.68-44.08 33.22-53.57-.07.24.35.44.33.49-.46 1.06-8.21 7.25-14 18.4Z" class="cls-2"/><path d="M94.86 7.44c3.31 1.42 5.47 2.56 8.47 4.56.58 5.73-2.14 1.93-10.91 3.26-2.34.35-15.17 6.01-16.44-.49-1.59-8.13 14.23-7.58 18.89-7.33Z" class="cls-7"/><path d="M29.73 82.33c.01.29-.28.33-.33.65-1.69 10.94-1.7 22.2-3.91 33.05-1.84 9.08-6.62 21.07-9.77 30.12-2.83 1.58-5.45 3.77-8.79 4.23 2.08-8.56 7.14-19.88 10.09-28.66.47-1.41.84-2.84 1.3-4.23 1.61-4.9 3.74-9.78 4.88-14.82 2.04-8.98 1.96-25.8 6.51-20.35Z" class="cls-5"/><path d="M37.55 64.75c-.21 1.32-1.34 9.52-1.63 9.93-.29.4-1.34-.08-1.63.33-.7.99-.53 16.64-.65 19.54 2.13 6.43.98 16.42 4.23 21.33-.28 2.25-1.42 7.38-1.95 10.09-.5.15-2.22-.68-2.28-.81-.58-1.3-2.51-25.23-2.61-28.33-.12-4.01-.19-8.28.65-11.72-1.81.69-.22-2.46-2.28-2.12.05-.33.34-.37.33-.65 3.78-16.24 5.73-38.16 12.05-53.08.6-1.42 1.25-2.56 1.95-3.91 1.36.87-1.3 6.74-2.28 11.56-1.87 9.18-2.47 18.61-3.91 27.84Z" class="cls-8"/><path d="M32.66 139.97c-.45 1.41-.82 2.81-1.3 4.23-.63 1.87-.96 4-1.63 5.86-1.05 2.93-7.44 18.74-8.47 20.35-1.41 2.2-5.7 4.57 3.09.16 1.67-.84 10.12-6.47 10.75-6.51.47-.03 2.59 2.78 3.09 3.26-2.28 1.88-4.5 7.1-6.51 9.28-7.04 7.62-13.22.43-14.33-7.33-1.43-10 4.71-10.43 8.47-15.79 2.82-4.02 3.69-9.58 6.84-13.51Z" class="cls-5"/><path d="M37.87 85.59c1.23 1.21 2.72 1.19 4.23 1.3 1.04 18.18-2.1 28.08-6.84 44.61-1.12-.76.19-3.21.65-5.54.54-2.71 1.67-7.85 1.95-10.09.87-6.89 1.06-15.74.33-22.63-.16-1.49-1.18-3.98-1.3-5.21-.39-4.11.88-1.01.98-2.44Z" class="cls-8"/><path d="M6.94 150.39c3.34-.46 5.96-2.65 8.79-4.23-1.24 3.55-3.25 15.1-7.65 15.96-5.27 1.03-1.84-8.83-1.14-11.72Z" class="cls-6"/><path d="M109.52 167.65c-.56 3.05.6 1.53.98 2.12.1.15.92 2.39 1.14 2.44.13.03.88-1.25 2.44-.98-1.52 1.93-3.78 6.28-5.7 7.49-8.29 5.24-11.77-6.35-12.86-7.82 1.78-2.79 4.63-1.62 5.54-4.88 1.82 3.61 5.32 4.17 8.47 1.63Z" class="cls-2"/><path fill="#367b44" stroke-width="0" d="M150.22 163.42c.1 3.17-1.78 7.41-5.7 6.84-.7-.1-1.69-1.25-1.79-1.3l-4.23-14.49.98-2.77c3.58 10.12 1.55 10 8.63 5.86.3.07 2.06 4.06 2.12 5.86Z"/><path d="M136.54 142.9q-3.74 2.44-7.49 4.88c-.03-.21-1.04-2.42-1.3-4.07l6.02-9.61c.55-.02 2.46 7.81 2.77 8.79ZM116.35 153.97c-5.01-1.27-1.68 2.17-3.91 1.95-.16-1.51-2.78-11.9-2.12-12.37l5.37-.49c.3.53.42 9.1.65 10.91Z" class="cls-8"/><path d="M129.7 170.58c-.51.85-1.31 4.24-2.12 4.56-1.49.58-2.67-1.06-3.42-1.3-1.18-1.78 3.95-3.08 5.54-3.26Z" class="cls-6"/><path d="M47.64 147.79c1.32.64 2.72 2.35 3.58 3.58-.12 3.04-1.05 6.62-.98 9.61.1 4.45 2.13 7.56.98 7.33-2.92-3.57-9.46-3.92-13.03-.98-.51-.48-2.62-3.29-3.09-3.26-.63.05-9.08 5.68-10.75 6.51-8.8 4.4-4.5 2.04-3.09-.16 1.03-1.61 7.41-17.42 8.47-20.35 5.65 3.95 9.37-6.41 17.91-2.28ZM99.09 155.93c.22 2.67.83 7.86 1.95 10.09-.91 3.26-3.76 2.09-5.54 4.88-4.47-6.02-11.12-6.45-16.28-.98-1.8-1.04-2.92-3.36-4.56-3.91 4.3-5.26 8.32-17.78 12.7-18.89 4.66-1.18 8.66 5.93 11.72 8.79Z" class="cls-2"/><path d="M52.53 153.32c1.69 4.88-.42 17.95 9.28 18.89 5.33.52 9.63-2.24 12.86-6.19 1.63.55 2.76 2.86 4.56 3.91-3.19 3.38-7.13 13.07-13.19 14-11.04 1.7-12.52-12.81-14.82-15.63 1.15.24-.87-2.88-.98-7.33-.07-2.99.86-6.56.98-9.61.27.38 1.26 1.84 1.3 1.95Z" class="cls-2"/><path fill="#bbe0ad" stroke-width="0" d="M129.05 99.92c-.43.08-3.37 3.02-7.49-1.79-.97-1.13-1.6-2.62-1.95-4.07-.93-3.74-1.48-19.1-2.28-25.56-.86-6.94-4.09-25.11-4.23-28.33-.33-7.51 3.66-8.2 5.54-4.23 1.94 4.11 8.95 54.39 10.42 63.99Z"/><path d="M51.55 78.43c6.11 5.77-3.53 8.9-9.44 8.47-1.51-.11-3-.09-4.23-1.3-2.96-2.92 1.88-6.63 3.26-7.16 1.35-.52 4.74-.4 6.19-.98 1.46.72 2.59 1.04 4.23.98Z" class="cls-1"/><path d="M55.46 140.95c-1.93-.96-5.08 5.54-7.82 6.84-8.54-4.13-12.26 6.23-17.91 2.28.67-1.86 1-3.99 1.63-5.86.73 3.84 4.61-5.08 9.93-8.47 1.38-.93 15.52-4.03 15.79-2.77-.52 2.66-1.15 5.31-1.63 7.98Z" class="cls-4"/><path d="M55.46 140.95c-.04.21-.21.32-.33.98-.72 4.07-1.67 12.45-2.61 11.4-.04-.11-1.03-1.57-1.3-1.95-.87-1.23-2.26-2.94-3.58-3.58 2.73-1.3 5.88-7.8 7.82-6.84ZM99.09 155.93c-3.06-2.87-7.06-9.97-11.72-8.79l.33-9.93c4.37-2.56 8.31 1.66 11.07 4.56.59 4.68-.05 9.51.33 14.17ZM41.13 78.43c-1.38.53-6.22 4.25-3.26 7.16-.1 1.43-1.37-1.67-.98 2.44.12 1.23 1.14 3.72 1.3 5.21.74 6.89.54 15.74-.33 22.63-3.26-4.91-2.11-14.9-4.23-21.33.12-2.9-.04-18.55.65-19.54.28-.4 1.34.08 1.63-.33.29-.41 1.42-8.61 1.63-9.93 2.75-.61 1.33 2.33 1.63 4.4.45 3.13 1.53 6.15 1.95 9.28Z" class="cls-8"/><path d="M41.78 29.25c-6.32 14.92-8.27 36.84-12.05 53.08-4.55-5.45-4.47 11.37-6.51 20.35-1.15 5.04-3.28 9.92-4.88 14.82-5.34-.28.16-4.68.33-5.05.47-1.05 2.61-19.29 2.93-22.79 5.33-21.72 4.84-45.09 14.98-65.45 4.45-.8 3.27 3.09 5.21 5.05Z" class="cls-2"/><path d="M94.86 7.44c-4.65-.26-20.48-.8-18.89 7.33 1.27 6.5 14.11.84 16.44.49 8.77-1.32 11.49 2.47 10.91-3.26 15.41 10.25 19.75 24.49 23.12 41.84 5.64 29.06 6.62 58.13 16.61 86.46-.31-.03-.78.14-.98-.16-.52-.77-4.29-15.01-5.21-17.58.28-7.66-6.75-10.59-1.95-12.37-1.06-.39-.76-4.56-.98-5.54-.06-.27-.59-.06-.65-.33-.41-1.78 1.22-5.41-4.23-4.4-1.47-9.6-8.48-59.88-10.42-63.99-1.87-3.97-5.87-3.28-5.54 4.23.14 3.22 3.37 21.39 4.23 28.33.8 6.46 1.35 21.82 2.28 25.56-.68 1.27-.2 8.41 0 10.58.37 3.92 3.38 19.7 1.79 21.98l-4.56 1.63-1.14-1.79-4.23-24.75c-4.99-9.28-7.51 2.82-7.82 7.49-.58 9.01 2.16 18.19 2.28 22.79.15 6.04-.12 2.12-6.35 4.4-2.36-2.95-1.67-8.61-2.44-12.86-.65-3.57-3.65-19.2-7.33-20.03-8.01-1.79-.47 28.11-2.44 32.4-.97 2.11-4.43-.67-5.86-1.63l-3.09-14.49c-.99 1.07-2.95 0-5.54.33-4.29 6.1-7.16-4.28-9.93 1.79-.43.94-3.78 18.59-4.88 20.19-.64.92-2.06.11-2.93-.16.12-.66.29-.77.33-.98.48-2.67 1.11-5.32 1.63-7.98-.27-1.27-14.41 1.83-15.79 2.77-5.32 3.38-9.21 12.3-9.93 8.47.48-1.42.85-2.82 1.3-4.23.91-2.85 1.78-5.58 2.61-8.47 4.74-16.53 7.88-26.43 6.84-44.61 5.91.43 15.56-2.7 9.44-8.47 7.39-.28 11.18-9.57 9.12-16.77-4.07-14.21-20.95-6.93-18.56 7.98-1.48.67-.62-6.54.65-8.96-1.06-14.23 2.46-16.42 3.26-19.21 1.02-3.57 1.43-7.53 2.93-11.72C52.84 18.93 59.41 10.5 68.5 3.53c9.75-1.35 17.39.07 26.38 3.91Z" class="cls-4"/><path d="M105.77 19.81c5.28-1.26 11.84 12.24 7.16 13.68-6.18 1.9-12.07-12.51-7.16-13.68Z" class="cls-7"/><path d="M102.35 77.77c4.09-.09 9.45 3.43 5.05 7.16-4.16 3.53-21.68.89-9.28-6.84 1.1.12 3.19.02 4.23-.33Z" class="cls-1"/><path d="M102.35 77.77c-1.04.34-3.13.44-4.23.33-10.61-1.11-11.5-18.88-2.77-23.45 13.4-7.01 18.34 19.38 7 23.12Z" class="cls-12"/><path d="M100.23 54.65c4.58-1.17 5.16 5.73.33 4.56-2.01-.49-2.64-3.97-.33-4.56Z" class="cls-7"/><path fill="#070706" stroke-width="0" d="M69.82 76.91s.08.03.08 0c.11-.66 2.04-1.79 2.33.55.04.33.78 5.37 3.81 4.64 2.57-.62 1.5-6.98 4.36-5.89 1.39.53.61 7.93-3.02 9.16-6.57 2.22-8.54-7.63-7.57-8.44Z"/><path d="M51.55 78.43c-1.65.06-2.78-.26-4.23-.98-2.93-1.44-4.72-4.74-5.21-7.82-2.39-14.91 14.49-22.19 18.56-7.98 2.07 7.2-1.72 16.49-9.12 16.77Z" class="cls-12"/><path d="M52.37 54.98c3.35-1.12 5.45 2.94 2.61 4.23-3.02 1.37-5.16-3.38-2.61-4.23Z" class="cls-7"/></g></svg>